<?xml version="1.0" standalone="no"?>
<!DOCTYPE svg PUBLIC "-//W3C//DTD SVG 20010904//EN"
 "http://www.w3.org/TR/2001/REC-SVG-20010904/DTD/svg10.dtd">
<svg version="1.0" xmlns="http://www.w3.org/2000/svg"
 width="7845.000000pt" height="3610.000000pt" viewBox="0 0 7845.000000 3610.000000"
 preserveAspectRatio="xMidYMid meet">

<g transform="translate(0.000000,3610.000000) scale(0.100000,-0.100000)"
fill="#000000" stroke="none">
<path d="M28765 35684 c-374 -217 -768 -440 -875 -496 -468 -242 -755 -410
-958 -559 -324 -240 -580 -520 -764 -839 -204 -354 -366 -859 -409 -1275 -15
-155 -6 -450 20 -620 18 -121 149 -796 156 -803 1 -2 28 20 59 49 119 109 230
267 521 744 372 611 552 859 894 1237 146 161 413 439 418 434 8 -8 -127 -265
-222 -420 -50 -83 -151 -245 -225 -361 -184 -292 -323 -542 -520 -934 -217
-434 -325 -674 -409 -903 -37 -100 -81 -248 -74 -248 11 0 175 43 252 67 690
208 1477 748 2027 1388 439 512 738 1128 838 1726 68 408 69 733 6 1674 -32
478 -37 535 -48 535 -4 -1 -313 -179 -687 -396z"/>
<path d="M9330 34174 c-167 -7 -518 -35 -685 -54 -1685 -193 -3348 -894 -4540
-1915 -184 -158 -1264 -1208 -1343 -1306 -88 -111 -529 -711 -660 -900 -846
-1222 -1447 -2576 -1776 -4001 -222 -961 -317 -1827 -317 -2873 1 -878 63
-1589 221 -2510 337 -1971 1110 -4089 2212 -6060 506 -905 1134 -1864 1667
-2550 553 -711 1375 -1714 1781 -2175 207 -236 281 -311 403 -413 78 -65 142
-132 234 -244 523 -639 1542 -1664 2118 -2130 109 -88 265 -244 390 -391 65
-77 329 -306 1509 -1311 787 -669 1465 -1244 1506 -1277 41 -33 217 -168 390
-299 173 -131 396 -304 495 -384 240 -195 399 -320 775 -611 173 -134 401
-314 505 -400 105 -86 249 -203 320 -260 770 -618 1966 -1596 2116 -1732 104
-94 215 -191 247 -215 60 -46 254 -147 271 -141 13 5 -97 201 -204 364 -298
451 -758 997 -1471 1744 -324 341 -880 887 -1199 1181 -115 106 -374 350 -575
543 -376 362 -415 396 -685 608 -203 159 -310 256 -694 628 -662 642 -903 862
-1232 1128 -169 136 -255 224 -352 361 -111 155 -319 367 -1062 1080 -933 895
-1418 1387 -1705 1726 -143 169 -1147 1313 -1260 1435 -130 141 -318 363 -572
677 -2830 3490 -4512 7192 -4793 10543 -32 393 -39 571 -39 1045 0 657 26
1048 110 1640 195 1373 666 2740 1352 3925 123 211 744 1144 876 1315 1124
1456 2921 2514 4861 2864 672 121 1395 152 2041 86 927 -95 1798 -378 2540
-826 765 -461 1497 -1125 2047 -1856 530 -706 946 -1500 1273 -2433 30 -85
118 -351 195 -590 78 -239 147 -446 154 -459 13 -25 13 -25 38 25 33 66 104
271 178 517 200 665 322 1000 511 1401 272 579 664 1136 1079 1531 212 202
510 438 758 599 812 529 1699 819 2576 843 394 11 719 -25 1098 -122 576 -146
1060 -362 1572 -700 178 -117 301 -209 492 -368 169 -139 249 -199 335 -246
l57 -32 -21 73 c-91 323 -266 644 -522 958 -87 107 -354 373 -466 466 -375
311 -744 515 -1220 676 -654 222 -1364 268 -2040 132 -839 -168 -1659 -599
-2424 -1274 -260 -229 -601 -584 -792 -825 -312 -394 -515 -750 -844 -1485
-178 -398 -333 -700 -358 -700 -4 0 -36 98 -71 218 -119 402 -278 845 -431
1197 -77 178 -278 575 -393 775 -252 441 -639 1011 -824 1216 -266 295 -821
832 -1078 1045 -479 396 -1191 808 -1803 1045 -633 246 -1310 392 -2057 444
-155 10 -662 19 -795 14z"/>
<path d="M28310 30654 c-445 -40 -777 -123 -1085 -274 -350 -170 -582 -385
-714 -663 -67 -140 -78 -132 116 -82 92 24 245 66 338 95 444 135 559 155 835
147 322 -9 718 -89 1127 -226 280 -93 416 -159 718 -345 72 -44 186 -113 254
-153 69 -40 120 -73 114 -73 -6 0 -130 36 -276 79 -552 166 -935 255 -1312
308 -190 26 -709 26 -880 -1 -406 -63 -771 -185 -1220 -408 -162 -81 -455
-240 -455 -248 0 -3 20 -28 44 -56 54 -62 101 -79 346 -123 301 -55 498 -131
997 -383 688 -348 968 -468 1343 -571 297 -83 665 -121 1015 -106 359 15 489
39 1180 215 704 180 1018 267 1178 324 l87 32 -52 61 c-29 34 -122 134 -208
222 -86 88 -179 187 -206 220 -58 69 -215 288 -394 550 -253 370 -487 653
-710 858 -321 295 -814 495 -1428 579 -110 15 -217 20 -427 23 -154 1 -300 1
-325 -1z"/>
<path d="M8700 29884 c-143 -26 -252 -78 -341 -162 -239 -225 -238 -646 2
-1190 70 -158 296 -610 377 -752 270 -477 556 -795 1001 -1113 1004 -719 2424
-885 4306 -503 187 38 318 67 323 71 6 5 -37 134 -69 208 -17 40 -78 160 -135
268 -120 226 -205 412 -269 583 -52 143 -128 384 -123 396 2 5 140 -178 308
-406 168 -229 337 -451 375 -494 160 -178 311 -251 490 -236 111 9 157 26 167
61 38 136 49 425 23 613 -67 480 -317 1055 -741 1707 -118 181 -468 666 -529
734 -11 11 -25 4 -81 -43 -37 -31 -74 -56 -80 -56 -22 0 -59 -60 -152 -245
-270 -542 -405 -1071 -389 -1530 7 -188 22 -281 84 -509 28 -103 45 -190 46
-226 1 -113 -59 -186 -227 -278 -473 -259 -945 -326 -1486 -211 -189 41 -462
140 -661 240 -426 213 -833 560 -1043 888 -116 180 -229 450 -279 666 -44 186
-58 316 -72 675 -15 378 -27 464 -77 567 -83 171 -294 270 -588 278 -74 2
-146 2 -160 -1z"/>
<path d="M7652 28943 c-76 -127 -175 -235 -681 -742 -499 -499 -973 -995
-1128 -1181 -155 -186 -312 -411 -382 -548 -105 -206 -153 -435 -131 -618 35
-287 169 -529 460 -828 204 -210 390 -361 820 -668 516 -367 778 -540 1040
-685 232 -129 393 -206 985 -470 549 -245 833 -392 1095 -566 231 -154 770
-527 887 -614 89 -66 254 -225 822 -793 391 -390 750 -744 798 -786 334 -291
1294 -941 1800 -1218 184 -101 625 -314 838 -406 986 -425 2208 -787 3365
-995 197 -36 205 -41 85 -51 -251 -21 -689 -8 -1030 32 -1798 208 -3991 1170
-5319 2333 -65 57 -265 244 -444 415 -771 737 -1315 1206 -1797 1549 -422 301
-695 456 -1235 702 -726 332 -1122 555 -1638 924 -779 557 -1198 949 -1532
1431 -51 74 -136 192 -188 262 l-95 128 -41 -37 c-169 -150 -239 -229 -329
-370 -223 -348 -322 -752 -272 -1113 51 -379 223 -683 586 -1035 539 -524
1254 -932 2189 -1250 107 -36 389 -122 625 -191 515 -150 779 -234 1006 -319
513 -194 864 -391 1174 -658 61 -52 256 -237 434 -411 516 -505 644 -610 1421
-1166 308 -220 425 -298 565 -377 92 -51 270 -135 358 -168 55 -21 67 -34 43
-47 -23 -13 -20 -21 17 -43 17 -10 64 -44 102 -76 74 -59 189 -129 317 -192
42 -20 97 -57 121 -81 48 -47 105 -68 857 -326 157 -54 333 -121 391 -148 94
-44 275 -105 439 -149 30 -8 125 -36 210 -63 149 -46 163 -48 340 -59 175 -11
499 -42 800 -75 318 -36 515 -48 860 -53 474 -7 821 9 930 43 139 43 212 56
317 55 91 0 110 3 174 29 178 74 254 92 424 100 147 8 168 11 255 43 88 32
425 116 530 132 25 4 80 15 123 26 43 11 125 26 182 33 75 10 124 23 170 44
98 46 248 147 365 246 92 77 109 96 136 155 23 51 74 116 217 280 270 307 367
442 428 592 117 286 57 536 -191 802 -73 78 -213 189 -304 241 -144 83 -324
158 -801 336 -773 288 -1353 615 -2025 1144 -230 181 -383 316 -535 472 -144
148 -143 148 -241 119 -175 -51 -497 -98 -679 -98 -192 0 -346 44 -398 115
-37 50 -4 105 109 178 39 26 116 67 170 91 l99 44 135 0 c146 0 140 1 364 -79
71 -26 130 -45 132 -43 11 11 -103 212 -207 367 -69 102 -154 231 -188 288
-35 57 -69 101 -75 99 -49 -19 -308 -93 -426 -122 -173 -43 -358 -56 -487 -35
-80 12 -231 56 -247 70 -16 16 58 135 129 205 78 79 153 123 265 155 104 31
346 39 478 16 128 -22 124 -23 116 22 -9 46 -41 132 -88 236 -34 74 -275 526
-280 526 -2 0 -45 -20 -97 -44 -221 -103 -431 -174 -634 -217 -144 -29 -397
-32 -520 -5 -44 10 -83 20 -86 22 -21 13 70 216 125 283 186 223 525 298 950
212 66 -13 86 -14 86 -5 0 27 -69 223 -104 293 -20 41 -78 148 -129 238 -77
138 -95 164 -112 160 -11 -2 -67 -18 -125 -35 -306 -91 -729 -162 -958 -162
-314 0 -459 78 -455 243 4 179 207 364 478 433 80 21 133 27 265 31 175 6 309
-6 538 -49 62 -11 115 -19 117 -16 7 7 -41 179 -80 288 -21 58 -55 141 -77
185 -41 81 -122 210 -138 220 -12 8 -294 -66 -560 -145 -775 -231 -1058 -299
-1482 -360 -502 -72 -1104 -79 -1633 -19 -613 69 -1124 209 -1649 450 -887
408 -1524 1058 -1932 1971 -77 172 -160 387 -199 513 -29 94 -55 153 -123 270
-47 83 -91 158 -97 168 -11 16 -17 10 -53 -50z m3 -1558 c94 -25 234 -98 297
-155 72 -65 143 -171 175 -263 37 -104 43 -254 15 -364 -51 -200 -168 -347
-348 -437 -173 -85 -372 -96 -626 -34 -97 23 -98 24 -98 118 0 198 107 387
247 440 117 44 257 -1 391 -125 80 -74 82 -73 82 45 0 275 -234 474 -535 457
-149 -9 -272 -63 -374 -166 -187 -189 -244 -499 -162 -891 28 -132 54 -208
116 -335 164 -337 489 -634 945 -860 591 -295 1055 -373 1595 -269 165 32 308
68 618 155 410 115 670 171 932 200 144 17 521 17 660 0 417 -48 826 -159
1258 -342 382 -161 662 -359 1198 -845 141 -128 157 -148 431 -506 157 -205
311 -413 342 -462 32 -49 99 -148 150 -220 122 -171 244 -369 412 -668 429
-760 521 -915 671 -1138 408 -602 733 -850 1119 -850 279 0 509 144 630 397
137 283 42 540 -233 632 -73 24 -242 45 -291 36 l-35 -6 6 -99 c7 -106 21
-153 57 -185 26 -24 55 -77 64 -121 6 -28 2 -36 -41 -74 -26 -23 -64 -53 -84
-66 -44 -30 -165 -54 -270 -54 l-78 0 -39 58 c-127 187 -180 377 -148 530 38
184 173 314 396 384 65 20 94 23 225 22 133 -1 160 -4 240 -28 158 -48 294
-135 393 -250 59 -69 137 -231 163 -341 30 -122 30 -297 0 -408 -31 -118 -84
-211 -166 -292 -87 -88 -124 -109 -399 -230 -121 -53 -224 -99 -230 -103 -17
-10 134 -30 294 -37 278 -14 501 46 679 181 24 19 113 99 198 179 164 155 230
207 327 262 58 33 177 86 182 80 11 -13 134 -213 134 -218 0 -14 -73 -133
-125 -204 -63 -85 -175 -190 -274 -258 -151 -102 -314 -167 -726 -291 -170
-51 -270 -90 -364 -143 -55 -31 -62 -38 -46 -44 11 -5 65 -25 120 -45 55 -20
186 -75 290 -121 424 -190 575 -241 831 -277 600 -85 1086 72 1121 363 8 67
-25 138 -91 198 -53 48 -102 73 -198 103 l-57 18 -79 -73 c-58 -54 -84 -86
-97 -121 -17 -46 -95 -178 -100 -172 -2 2 0 113 3 248 l7 245 145 73 c99 49
177 80 245 98 227 58 402 9 507 -144 65 -95 118 -266 118 -383 0 -121 -59
-297 -139 -412 -49 -72 -171 -196 -246 -251 -203 -150 -380 -206 -654 -206
-405 1 -856 134 -1426 422 -669 338 -1347 849 -1717 1295 -105 126 -67 68
-914 1410 -416 659 -762 1204 -770 1212 -12 13 -13 8 -9 -35 3 -27 10 -110 15
-183 70 -956 -257 -1530 -980 -1723 -74 -19 -110 -22 -285 -23 -162 0 -215 4
-280 19 -151 36 -287 93 -400 169 -327 220 -555 550 -629 909 -76 366 30 753
273 998 106 107 230 180 376 222 67 19 102 23 220 22 119 -1 155 -5 240 -28
338 -91 567 -304 646 -602 29 -107 31 -309 5 -404 -88 -315 -312 -482 -590
-441 -48 7 -86 17 -84 21 8 23 126 113 201 154 125 68 167 125 221 294 26 82
26 85 10 145 -8 34 -35 103 -59 153 -94 194 -264 294 -548 323 -89 9 -93 8
-147 -19 -368 -186 -484 -602 -279 -1000 166 -323 488 -503 838 -468 268 26
599 217 776 448 93 122 167 296 195 460 18 104 16 314 -5 435 -123 716 -726
1436 -1487 1776 -196 87 -413 151 -633 186 -154 24 -454 24 -590 -1 -297 -54
-534 -166 -700 -331 -147 -147 -208 -273 -209 -435 0 -119 25 -200 95 -305 57
-85 199 -221 213 -204 2 2 47 115 101 252 53 136 102 247 109 247 28 0 114
-50 141 -81 44 -52 84 -149 106 -251 22 -108 25 -311 6 -423 l-12 -70 -55 -27
c-79 -39 -203 -76 -295 -89 -377 -52 -673 189 -767 626 -19 89 -16 332 6 433
37 172 102 318 198 447 40 52 96 104 225 205 156 123 213 175 213 196 0 9
-123 -2 -230 -22 -135 -25 -294 -83 -600 -216 -321 -141 -440 -184 -620 -224
-119 -27 -138 -28 -375 -28 -230 1 -261 3 -390 28 -559 108 -1006 314 -1486
686 -516 399 -798 776 -885 1180 -21 98 -21 291 1 392 59 288 246 544 536 740
143 96 346 180 499 207 74 13 241 6 315 -14z m1320 -1153 c229 -63 426 -196
551 -373 103 -147 144 -275 144 -456 0 -62 -2 -113 -5 -113 -3 0 -31 13 -63
29 -83 42 -163 104 -287 222 -179 170 -236 210 -360 251 -61 20 -88 22 -205
21 -74 -1 -164 -8 -200 -15 l-65 -13 -32 -80 c-65 -163 -70 -317 -12 -425 38
-73 120 -150 199 -190 124 -63 329 -110 543 -125 54 -4 95 -11 90 -15 -13 -12
-117 -48 -190 -66 -104 -25 -280 -29 -390 -10 -361 63 -652 311 -719 614 -74
331 198 678 597 762 73 15 323 4 404 -18z m6409 -5445 c17 -68 28 -234 23
-337 -13 -241 -98 -426 -255 -555 -242 -200 -680 -258 -1057 -139 -88 28 -200
83 -199 99 0 6 52 39 115 75 245 139 304 181 579 411 279 232 509 378 700 443
92 31 87 31 94 3z"/>
<path d="M23950 28975 c-47 -13 -191 -63 -320 -110 -619 -228 -792 -273 -1500
-395 -673 -116 -943 -176 -1252 -280 -487 -164 -852 -391 -1246 -774 -607
-590 -920 -1232 -1034 -2121 -20 -151 -22 -216 -22 -590 0 -364 3 -447 22
-625 21 -194 56 -461 68 -524 l6 -28 35 48 c55 78 87 148 153 340 124 359 257
636 469 974 423 677 1033 1309 1676 1737 169 112 433 266 527 307 18 7 68 30
111 50 43 20 77 32 75 27 -1 -5 -178 -171 -393 -368 -414 -382 -501 -473 -765
-803 -360 -451 -642 -884 -870 -1335 -184 -363 -281 -629 -333 -909 l-15 -79
72 6 c93 7 131 23 241 105 279 209 570 369 1171 642 832 379 1147 556 1526
858 171 136 454 419 590 590 557 699 908 1569 1052 2607 35 252 66 676 49 674
-4 0 -46 -11 -93 -24z"/>
<path d="M29751 27043 c37 -105 104 -239 209 -423 172 -299 256 -475 340 -710
221 -616 355 -1613 337 -2505 -12 -558 -56 -1002 -153 -1530 -139 -755 -341
-1468 -744 -2625 -200 -573 -241 -679 -512 -1320 -318 -752 -441 -1076 -533
-1405 -20 -71 -38 -138 -41 -148 -4 -14 16 -7 93 31 341 172 697 498 1029 942
592 791 1156 2001 1528 3275 176 607 269 1120 323 1780 25 318 25 1137 0 1420
-47 518 -115 917 -221 1300 -295 1063 -834 1736 -1581 1976 -49 16 -93 29 -97
29 -4 0 6 -39 23 -87z"/>
<path d="M28565 26439 c-267 -168 -644 -289 -1110 -358 -453 -66 -783 -87
-1515 -96 -778 -10 -1052 -35 -1425 -128 -481 -121 -902 -352 -1335 -732 -58
-51 -193 -182 -300 -291 -627 -641 -1027 -1223 -1164 -1698 -29 -98 -30 -106
-17 -106 25 0 186 137 376 320 335 322 441 404 805 622 724 435 1401 687 2220
827 173 30 429 64 565 76 39 3 84 9 100 12 19 3 26 2 20 -4 -18 -18 -205 -90
-630 -243 -1394 -505 -2030 -801 -2414 -1124 -81 -68 -160 -158 -144 -163 21
-7 690 -106 858 -128 404 -51 521 -59 910 -60 624 0 1125 63 1520 192 188 62
334 140 650 348 766 506 1414 1137 1787 1741 143 231 231 427 330 734 l63 195
-30 57 c-16 32 -32 58 -35 58 -3 -1 -41 -23 -85 -51z"/>
<path d="M23260 22025 c-150 -17 -257 -36 -477 -85 -192 -42 -370 -74 -470
-86 -64 -7 -73 -13 -50 -33 8 -6 19 -35 26 -64 l11 -52 66 -18 c83 -21 4 14
1439 -642 1148 -524 1297 -593 1285 -595 -3 0 -652 216 -1443 479 -1063 355
-1437 476 -1432 463 4 -9 34 -89 67 -177 238 -629 396 -885 783 -1270 849
-847 1829 -1043 3019 -605 233 86 498 207 746 342 180 98 579 385 697 501 l82
81 -57 34 c-31 19 -163 91 -292 159 -314 167 -590 334 -845 510 -611 423 -814
552 -1075 682 -405 201 -791 307 -1340 366 -197 22 -598 27 -740 10z"/>
<path d="M3248 20933 c-9 -147 17 -371 64 -558 166 -669 651 -1402 1263 -1909
44 -37 148 -115 230 -174 526 -375 878 -528 1755 -758 362 -96 522 -149 800
-269 195 -84 428 -170 436 -162 6 5 -27 122 -58 207 -88 245 -260 520 -487
780 -179 205 -738 743 -938 903 -128 101 -307 219 -666 437 -175 106 -316 194
-314 196 6 6 217 -52 357 -99 783 -262 1555 -816 2112 -1517 73 -92 181 -251
415 -612 62 -95 141 -204 175 -242 l63 -70 6 30 c14 61 9 726 -6 870 -37 363
-150 699 -364 1079 -525 931 -1256 1435 -2381 1640 -320 58 -615 93 -1225 145
-516 44 -839 85 -1092 141 -73 16 -135 29 -137 29 -2 0 -6 -39 -8 -87z"/>
<path d="M11694 16809 c-22 -5 -65 -24 -95 -42 -98 -58 -141 -144 -224 -447
-50 -184 -124 -294 -237 -351 -78 -39 -136 -51 -254 -50 -210 2 -292 37 -439
190 -264 273 -279 287 -339 310 -85 32 -149 28 -232 -13 -38 -19 -92 -57 -121
-83 l-51 -48 -22 -295 c-12 -162 -28 -326 -37 -365 -38 -175 -132 -300 -273
-367 -164 -78 -277 -78 -508 1 -81 27 -175 57 -208 65 -80 21 -208 20 -294 0
l-68 -17 -16 -81 c-20 -100 -21 -253 -1 -326 8 -30 52 -131 99 -225 101 -200
121 -268 112 -373 -18 -191 -100 -315 -296 -446 -99 -66 -185 -86 -445 -102
-126 -8 -250 -18 -275 -22 l-44 -7 -24 -75 c-15 -49 -26 -111 -29 -176 -10
-189 35 -261 263 -420 68 -47 147 -112 176 -143 156 -171 202 -504 97 -716
-62 -126 -185 -225 -516 -411 l-122 -69 -7 -63 c-10 -93 0 -222 19 -258 56
-107 165 -155 447 -195 81 -11 170 -31 201 -43 139 -56 296 -191 350 -302 27
-54 33 -81 37 -148 7 -131 -18 -210 -163 -506 -140 -286 -175 -391 -175 -520
0 -117 0 -116 89 -136 97 -22 268 -22 458 0 186 21 273 20 367 -4 105 -27 165
-61 258 -148 91 -86 157 -187 188 -287 21 -67 21 -81 15 -340 -7 -277 -3 -339
32 -451 l16 -52 73 -12 c95 -16 214 -8 285 19 62 23 147 82 277 190 151 125
260 169 442 178 247 12 485 -54 631 -175 105 -87 157 -156 304 -400 91 -153
183 -282 233 -326 19 -16 33 -18 107 -13 69 4 99 11 148 35 104 52 164 121
277 322 71 127 151 240 213 302 149 149 406 250 637 251 198 1 313 -48 550
-236 86 -67 183 -135 215 -152 56 -27 68 -29 175 -30 132 0 192 14 244 57 80
66 101 176 71 368 -46 296 -54 426 -34 522 40 185 202 313 456 358 70 13 152
12 543 -6 161 -8 230 4 297 49 86 58 120 145 98 251 -25 118 -68 197 -223 401
-109 145 -160 294 -147 430 17 169 65 287 154 376 99 99 184 130 501 183 113
19 236 45 274 58 l69 23 20 60 c15 46 20 89 21 180 1 114 0 122 -26 161 -42
65 -89 97 -272 187 -94 46 -194 103 -223 126 -132 104 -214 296 -214 498 1
223 71 342 349 590 221 197 248 242 240 403 -6 119 -40 180 -123 222 -66 34
-131 47 -328 63 -287 25 -405 64 -512 170 -117 118 -175 346 -130 517 17 66
80 205 129 286 159 263 160 374 6 535 l-67 71 -89 0 c-95 -1 -156 -14 -377
-83 -172 -54 -261 -66 -363 -51 -106 16 -226 73 -297 143 -102 100 -136 216
-137 472 0 149 -17 297 -41 365 -20 58 -79 139 -127 176 -59 45 -168 79 -229
70 -95 -13 -129 -37 -318 -230 -152 -154 -191 -188 -250 -218 -83 -43 -128
-56 -238 -68 -154 -18 -270 21 -372 124 -33 34 -74 88 -92 121 -34 66 -116
325 -161 510 l-29 120 -64 11 c-77 14 -209 15 -265 3z m371 -1410 c201 -19
477 -78 725 -156 169 -53 233 -89 272 -151 17 -28 20 -45 16 -102 -7 -89 -51
-178 -273 -540 -259 -423 -347 -548 -481 -683 -187 -189 -363 -267 -567 -254
-99 7 -165 26 -267 77 -186 94 -245 159 -503 552 -273 415 -466 771 -491 906
-5 31 -2 35 57 78 294 217 922 330 1512 273z m-2105 -712 c303 -396 616 -991
696 -1324 32 -132 36 -261 10 -347 -59 -200 -186 -336 -373 -401 -163 -57
-211 -60 -798 -59 -407 1 -579 5 -697 17 -86 8 -162 18 -168 22 -13 8 -13 131
0 232 41 310 201 713 438 1103 144 236 213 325 446 572 153 162 212 209 300
240 79 27 85 25 146 -55z m3799 12 c130 -74 259 -190 405 -364 339 -403 610
-911 696 -1303 28 -127 42 -273 34 -354 -7 -67 -7 -68 -43 -78 -105 -31 -275
-42 -736 -47 -638 -7 -766 6 -955 98 -292 143 -416 527 -279 862 35 83 98 190
244 412 62 94 163 250 225 348 61 98 138 212 169 255 57 76 168 202 179 202 3
0 30 -14 61 -31z m-1801 -1705 c42 -8 115 -34 162 -56 71 -34 100 -56 175
-132 124 -126 191 -246 229 -415 93 -406 -90 -789 -444 -929 -199 -79 -441
-91 -618 -31 -155 53 -293 179 -372 344 -71 147 -84 210 -85 395 0 167 13 235
71 373 94 222 291 389 524 442 41 9 80 18 85 20 30 10 207 3 273 -11z m-2628
-1014 c703 -28 875 -51 1068 -147 84 -42 171 -116 207 -178 54 -91 68 -151 69
-285 1 -171 -27 -296 -100 -449 -162 -341 -575 -982 -728 -1131 l-46 -44 -37
13 c-225 81 -672 620 -884 1066 -95 201 -241 674 -270 877 -16 107 -4 155 50
209 57 57 197 89 356 82 33 -1 175 -7 315 -13z m5516 -29 c24 -13 52 -41 65
-65 22 -38 24 -51 23 -186 -1 -111 -6 -167 -23 -238 -76 -327 -274 -762 -498
-1092 -199 -295 -452 -542 -618 -605 l-44 -18 -37 33 c-103 90 -162 175 -404
585 -281 475 -369 644 -431 830 -30 91 -33 111 -34 225 0 122 1 127 33 192 71
144 237 244 497 299 207 43 644 68 1175 65 249 -1 256 -2 296 -25z m-2806
-1051 c141 -29 255 -89 348 -182 40 -40 98 -109 128 -153 31 -44 105 -152 166
-240 312 -450 412 -618 463 -778 14 -44 25 -102 25 -133 l0 -55 -112 -54
c-389 -186 -936 -279 -1488 -255 -500 23 -907 129 -1197 314 -5 4 28 129 46
176 83 206 442 777 656 1042 150 186 307 287 500 323 112 21 352 18 465 -5z"/>
<path d="M6490 16684 c-264 -36 -579 -151 -775 -284 -329 -224 -696 -739 -970
-1361 l-54 -124 102 -2 c194 -4 493 -24 737 -49 374 -37 673 -50 833 -36 247
23 426 71 636 172 230 112 348 198 813 601 l296 257 -61 6 c-528 52 -1162 49
-1513 -9 -49 -8 -95 -15 -103 -15 -24 0 17 39 95 90 317 208 914 273 1298 140
101 -35 183 -88 270 -174 85 -86 125 -106 205 -106 40 0 40 11 -9 106 -125
250 -458 515 -825 657 -340 131 -658 174 -975 131z"/>
<path d="M28930 15610 c-755 -36 -1410 -241 -1975 -620 -501 -336 -788 -712
-871 -1138 -103 -533 159 -1101 669 -1456 l88 -61 -253 -42 c-546 -90 -945
-187 -1369 -332 -1029 -353 -1740 -907 -2024 -1577 -244 -577 -194 -1241 130
-1723 165 -246 419 -485 705 -665 438 -276 961 -443 1565 -501 913 -87 1758
56 2470 420 508 260 947 624 1192 990 237 353 324 778 233 1135 -76 296 -276
538 -569 689 -222 114 -414 156 -716 156 -329 0 -554 -47 -825 -173 -308 -142
-617 -420 -806 -727 -186 -300 -272 -640 -261 -1035 6 -207 20 -283 65 -339
49 -60 135 -77 193 -38 58 38 94 127 134 328 19 96 46 213 60 260 151 506 494
962 935 1243 91 58 232 126 320 154 166 54 187 57 385 56 165 0 201 -3 270
-22 233 -65 420 -213 520 -413 62 -122 86 -234 86 -406 0 -385 -149 -726 -461
-1056 -325 -344 -809 -648 -1305 -820 -515 -178 -1135 -251 -1670 -196 -416
43 -751 184 -981 414 -237 236 -336 506 -336 910 1 751 340 1478 991 2125 429
427 909 718 1489 904 79 25 151 46 160 46 8 0 63 -27 121 -59 134 -76 368
-188 490 -236 373 -145 862 -202 1084 -126 215 74 321 206 276 342 -64 189
-396 342 -855 394 -138 15 -565 24 -778 16 l-99 -4 -24 59 c-94 231 -107 544
-38 889 65 323 231 663 471 965 37 47 142 159 233 250 362 358 692 569 1076
685 201 60 281 70 560 69 231 0 260 -2 375 -27 324 -68 564 -191 765 -392 203
-202 311 -438 334 -731 22 -284 -46 -546 -201 -771 -65 -96 -218 -256 -312
-327 -139 -106 -318 -187 -476 -217 -101 -19 -312 -16 -390 5 -190 52 -327
176 -381 345 -47 146 -34 369 31 524 72 173 157 274 450 535 102 91 191 171
199 178 13 12 12 17 -9 39 -48 51 -140 56 -280 13 -272 -83 -626 -391 -749
-652 -50 -104 -69 -172 -80 -286 -18 -167 19 -347 96 -479 81 -136 254 -288
408 -356 157 -69 336 -94 547 -76 306 25 552 115 788 289 94 70 260 235 327
326 117 159 204 359 240 556 26 142 23 391 -6 533 -49 243 -161 449 -341 627
-369 367 -904 570 -1610 610 -190 11 -245 11 -480 0z m-534 -3363 c255 -48
394 -142 394 -265 0 -45 -32 -92 -79 -116 -110 -57 -368 -38 -631 46 -92 29
-274 118 -356 174 -83 57 -176 135 -169 142 2 3 73 13 157 23 189 22 556 20
684 -4z"/>
<path d="M64571 13329 c-29 -5 -69 -16 -88 -25 -69 -33 -63 227 -61 -2968 3
-2810 4 -2895 22 -2915 40 -44 107 -56 306 -56 206 0 256 9 302 55 l28 28 0
1086 c0 597 3 1086 8 1086 4 0 359 -493 790 -1094 431 -602 794 -1101 806
-1110 65 -42 123 -51 341 -51 172 0 220 3 267 18 99 30 123 97 73 200 -15 29
-366 522 -781 1096 -415 575 -753 1048 -752 1052 2 5 296 322 654 706 359 384
663 712 678 729 75 91 98 203 52 249 -42 42 -93 50 -331 50 -206 -1 -224 -2
-278 -24 -33 -13 -78 -42 -107 -69 -27 -26 -353 -405 -725 -842 -372 -437
-681 -796 -686 -798 -5 -2 -9 671 -9 1756 0 1744 0 1760 -20 1785 -35 44 -98
59 -275 63 -88 1 -184 -1 -214 -7z"/>
<path d="M50055 12940 c-219 -13 -243 -56 -175 -313 88 -335 1364 -5072 1376
-5108 30 -93 100 -131 277 -150 125 -14 420 -6 499 14 66 16 119 49 141 87 8
14 31 93 51 175 20 83 249 1032 509 2111 260 1078 477 1961 482 1961 6 1 22
-44 37 -100 15 -56 261 -1002 548 -2102 305 -1169 530 -2016 543 -2040 48 -87
142 -110 452 -110 314 1 405 27 453 133 21 45 1378 5055 1408 5195 8 38 14 91
14 118 0 42 -5 55 -28 79 -37 36 -80 47 -217 56 -130 8 -314 -9 -365 -34 -21
-10 -42 -31 -53 -53 -9 -20 -276 -1086 -593 -2370 -317 -1284 -578 -2336 -580
-2338 -2 -2 -6 -2 -8 0 -2 2 -273 1046 -601 2319 -328 1273 -605 2335 -614
2360 -33 88 -110 113 -356 113 -265 0 -343 -23 -378 -112 -9 -21 -257 -1046
-552 -2277 -640 -2672 -576 -2413 -587 -2388 -5 10 -274 1072 -598 2358 -325
1287 -596 2346 -603 2355 -6 9 -19 21 -27 28 -38 29 -256 45 -455 33z"/>
<path d="M58630 11529 c-657 -38 -1156 -363 -1435 -934 -73 -151 -114 -261
-155 -424 -65 -261 -90 -481 -90 -800 1 -493 73 -862 236 -1196 280 -577 786
-865 1520 -865 107 0 232 6 301 15 746 97 1266 586 1462 1374 135 542 114
1236 -53 1728 -146 432 -403 746 -756 923 -278 140 -634 202 -1030 179z m345
-595 c115 -20 197 -45 277 -85 296 -149 478 -423 563 -847 41 -209 50 -313 49
-592 0 -267 -9 -370 -49 -560 -97 -467 -337 -774 -700 -895 -112 -38 -229 -55
-375 -55 -235 0 -433 53 -588 159 -348 236 -514 673 -515 1356 0 244 9 355 48
551 60 301 171 529 340 700 148 150 311 233 540 273 84 15 312 12 410 -5z"/>
<path d="M63060 11529 c-200 -18 -342 -89 -530 -266 -92 -87 -221 -243 -313
-380 l-62 -93 -5 293 c-6 324 -6 328 -73 364 -26 14 -65 18 -204 21 -196 4
-266 -8 -302 -54 l-21 -27 0 -1972 0 -1973 30 -26 c52 -43 99 -51 300 -51 206
0 271 13 310 62 20 25 20 38 20 1311 l0 1285 62 101 c210 344 382 554 539 658
90 60 152 80 260 86 110 5 194 -10 349 -63 137 -48 152 -49 182 -25 47 36 53
75 53 330 0 278 -4 294 -82 333 -130 66 -342 102 -513 86z"/>
<path d="M37795 11514 c-412 -64 -919 -240 -1334 -463 -69 -38 -167 -89 -218
-115 -333 -171 -965 -673 -1753 -1391 -1306 -1191 -2165 -1783 -2707 -1864
-97 -15 -167 -14 -259 4 -174 33 -260 113 -285 264 -25 161 82 473 338 984
318 636 842 1398 1248 1816 331 340 594 491 854 491 103 -1 151 -11 239 -51
75 -34 73 -42 -18 -54 -85 -11 -253 -70 -333 -116 -101 -59 -218 -178 -258
-263 -99 -212 -36 -423 164 -544 152 -92 366 -112 558 -52 130 40 287 169 359
293 67 115 93 275 71 428 -50 340 -274 540 -691 616 -148 27 -502 24 -675 -5
-373 -64 -724 -182 -1120 -377 -581 -285 -1118 -689 -1450 -1090 -166 -199
-301 -440 -378 -671 -67 -202 -89 -339 -90 -554 -1 -251 27 -406 108 -593 76
-175 240 -370 408 -485 155 -107 368 -190 582 -228 128 -22 393 -30 507 -15
566 76 1237 440 2093 1136 281 228 491 414 873 770 275 256 262 249 192 113
-188 -365 -243 -732 -160 -1080 102 -435 454 -774 924 -893 175 -44 318 -58
531 -51 283 9 474 38 700 108 263 80 559 227 877 435 l108 70 172 6 c330 10
613 83 920 237 318 159 642 407 1252 959 l148 135 -83 77 c-46 43 -87 78 -91
79 -4 0 -78 -62 -165 -138 -352 -306 -471 -404 -674 -549 -297 -212 -555 -353
-791 -432 -93 -31 -239 -64 -247 -55 -2 2 34 38 80 80 136 124 426 420 538
549 314 364 491 670 572 992 16 63 29 121 29 127 0 7 -96 99 -214 204 -220
196 -226 200 -226 134 0 -52 -63 -264 -115 -387 -38 -89 -136 -277 -205 -390
-146 -242 -315 -470 -543 -731 l-132 -151 -90 -7 c-230 -17 -384 -81 -532
-220 -80 -76 -118 -140 -133 -227 -7 -47 -5 -65 20 -139 l29 -85 -37 -33
c-119 -107 -370 -245 -554 -307 -260 -86 -508 -87 -634 -1 -177 121 -177 432
2 861 152 365 530 958 930 1460 420 527 859 926 1168 1061 37 16 66 31 66 34
0 3 -75 72 -166 153 -111 99 -172 147 -187 146 -12 -1 -62 -7 -112 -15z"/>
<path d="M69170 11515 c-801 -110 -1331 -665 -1485 -1555 -61 -348 -60 -841 0
-1185 57 -319 175 -620 329 -837 87 -121 247 -280 356 -353 150 -100 369 -192
545 -229 208 -44 532 -59 740 -36 569 65 1001 342 1281 821 155 264 252 588
295 989 15 135 15 544 0 680 -64 591 -234 997 -543 1295 -301 292 -691 427
-1221 424 -111 -1 -245 -7 -297 -14z m496 -579 c150 -27 255 -65 364 -134 365
-230 547 -739 527 -1472 -7 -252 -28 -412 -77 -590 -110 -406 -347 -680 -680
-789 -122 -40 -238 -54 -409 -48 -234 8 -385 49 -534 147 -297 193 -455 509
-518 1035 -19 160 -17 549 5 705 91 669 393 1058 886 1145 102 18 336 18 436
1z"/>
<path d="M72328 11457 c-69 -20 -96 -41 -108 -88 -16 -58 -8 -2591 9 -2739 41
-372 115 -609 258 -823 109 -165 250 -288 428 -377 163 -80 353 -120 577 -120
370 0 697 152 1032 478 54 54 121 123 149 155 27 31 54 57 58 57 5 0 9 -126 9
-280 l0 -281 24 -24 c38 -38 97 -49 261 -50 172 0 249 16 284 61 l21 27 0
1922 0 1923 -31 66 c-47 100 -51 101 -299 101 -199 0 -207 -1 -255 -25 -27
-14 -56 -36 -62 -50 -10 -19 -13 -326 -13 -1386 l0 -1361 -103 -124 c-148
-178 -255 -287 -372 -381 -156 -125 -247 -175 -391 -213 -79 -21 -248 -22
-339 -1 -266 63 -458 278 -536 605 -52 216 -52 205 -56 1571 -5 1418 2 1301
-76 1342 -38 20 -58 22 -232 25 -133 2 -204 -1 -237 -10z"/>
<path d="M76736 8375 c22 -289 87 -516 194 -680 51 -78 177 -199 249 -238 28
-16 51 -26 51 -23 0 2 -112 231 -249 508 l-250 503 5 -70z"/>
</g>
</svg>
